<?xml version="1.0" encoding="utf-8"?>
<!-- Generator: Adobe Illustrator 19.1.0, SVG Export Plug-In . SVG Version: 6.00 Build 0)  -->
<svg version="1.1" id="Layer_1" xmlns="http://www.w3.org/2000/svg" xmlns:xlink="http://www.w3.org/1999/xlink" x="0px" y="0px"
	 width="25.8px" height="22px" viewBox="0 0 25.8 22" enable-background="new 0 0 25.8 22" xml:space="preserve">
<g>
	<g>
		<path fill="#FFFFFF" d="M14.9,22h-4c-0.5,0-0.9-0.4-0.9-0.9v-3.2c0-0.5,0.4-0.9,0.9-0.9h4c0.5,0,0.9,0.4,0.9,0.9v3.2
			C15.8,21.6,15.4,22,14.9,22z M10.9,17.8c-0.1,0-0.2,0.1-0.2,0.2v3.2c0,0.1,0.1,0.2,0.2,0.2h4c0.1,0,0.2-0.1,0.2-0.2v-3.2
			c0-0.1-0.1-0.2-0.2-0.2H10.9z"/>
	</g>
	<g>
		<path fill="#FFFFFF" d="M24.9,17.8H0.9c-0.5,0-0.9-0.4-0.9-0.9v-16C0,0.4,0.4,0,0.9,0h24.1c0.5,0,0.9,0.4,0.9,0.9v16
			C25.8,17.4,25.4,17.8,24.9,17.8z M0.9,0.7c-0.1,0-0.2,0.1-0.2,0.2v16c0,0.1,0.1,0.2,0.2,0.2h24.1c0.1,0,0.2-0.1,0.2-0.2v-16
			c0-0.1-0.1-0.2-0.2-0.2C24.9,0.7,0.9,0.7,0.9,0.7z"/>
	</g>
	<g>
		<path fill="#FFFFFF" d="M24.1,16.5H1.7c-0.2,0-0.3-0.2-0.3-0.3V1.7c0-0.2,0.2-0.3,0.3-0.3h22.4c0.2,0,0.3,0.2,0.3,0.3v14.5
			C24.5,16.4,24.3,16.5,24.1,16.5z M2.1,15.8h21.7V2H2.1V15.8z"/>
	</g>
	<g>
		<path fill="#FFFFFF" d="M17.9,22H8c-0.2,0-0.3-0.2-0.3-0.3c0-0.2,0.2-0.3,0.3-0.3h9.9c0.2,0,0.3,0.2,0.3,0.3
			C18.2,21.8,18.1,22,17.9,22z"/>
	</g>
</g>
<g>
</g>
<g>
</g>
<g>
</g>
<g>
</g>
<g>
</g>
<g>
</g>
<g>
</g>
<g>
</g>
<g>
</g>
<g>
</g>
<g>
</g>
<g>
</g>
<g>
</g>
<g>
</g>
<g>
</g>
</svg>
