<?xml version="1.0" encoding="utf-8"?>
<!-- Generator: Adobe Illustrator 19.1.0, SVG Export Plug-In . SVG Version: 6.00 Build 0)  -->
<svg version="1.1" id="Layer_1" xmlns="http://www.w3.org/2000/svg" xmlns:xlink="http://www.w3.org/1999/xlink" x="0px" y="0px"
	 width="12.4px" height="18px" viewBox="0 0 12.4 18" enable-background="new 0 0 12.4 18" xml:space="preserve">
<g>
	<g>
		<path d="M11.7,18h-11C0.3,18,0,17.7,0,17.3V0.7C0,0.3,0.3,0,0.7,0h11c0.4,0,0.7,0.3,0.7,0.7v16.6C12.4,17.7,12.1,18,11.7,18z
			 M0.7,0.6c-0.1,0-0.2,0.1-0.2,0.2v16.6c0,0.1,0.1,0.2,0.2,0.2h11c0.1,0,0.2-0.1,0.2-0.2V0.7c0-0.1-0.1-0.2-0.2-0.2L0.7,0.6
			L0.7,0.6z"/>
	</g>
	<g>
		<path d="M11.2,15.5h-10c-0.2,0-0.3-0.1-0.3-0.3V1.5c0-0.2,0.1-0.3,0.3-0.3h10c0.2,0,0.3,0.1,0.3,0.3v13.7
			C11.5,15.3,11.3,15.5,11.2,15.5z M1.4,14.9h9.5V1.8H1.4C1.4,1.8,1.4,14.9,1.4,14.9z"/>
	</g>
	<g>
		<path d="M6.2,17.1c-0.1,0-0.1,0-0.2,0c-0.3-0.1-0.5-0.4-0.4-0.7c0-0.2,0.1-0.3,0.3-0.4C6,15.9,6.2,15.9,6.3,16
			c0.3,0.1,0.5,0.4,0.4,0.7l0,0C6.7,16.9,6.4,17.1,6.2,17.1z M6.2,16.3C6.1,16.3,6.1,16.4,6.2,16.3C6,16.4,6,16.4,6,16.5
			c0,0.1,0,0.2,0.1,0.2c0.1,0,0.1,0,0.1,0c0,0,0.1-0.1,0.1-0.1C6.4,16.5,6.3,16.4,6.2,16.3C6.2,16.3,6.2,16.3,6.2,16.3z"/>
	</g>
</g>
<g>
</g>
<g>
</g>
<g>
</g>
<g>
</g>
<g>
</g>
<g>
</g>
<g>
</g>
<g>
</g>
<g>
</g>
<g>
</g>
<g>
</g>
<g>
</g>
<g>
</g>
<g>
</g>
<g>
</g>
</svg>
