<?xml version="1.0" encoding="utf-8"?>
<!-- Generator: Adobe Illustrator 19.1.0, SVG Export Plug-In . SVG Version: 6.00 Build 0)  -->
<svg version="1.1" id="Layer_1" xmlns="http://www.w3.org/2000/svg" xmlns:xlink="http://www.w3.org/1999/xlink" x="0px" y="0px"
	 width="7.6px" height="14px" viewBox="0 0 7.6 14" enable-background="new 0 0 7.6 14" xml:space="preserve">
<g>
	<g>
		<path d="M6.9,14H0.7C0.3,14,0,13.7,0,13.3V0.7C0,0.3,0.3,0,0.7,0h6.2c0.4,0,0.7,0.3,0.7,0.7v12.7C7.6,13.7,7.3,14,6.9,14z
			 M0.7,0.5c-0.1,0-0.1,0.1-0.1,0.1v12.7c0,0.1,0.1,0.1,0.1,0.1h6.2C7,13.5,7,13.4,7,13.3V0.7C7,0.6,7,0.5,6.9,0.5H0.7z"/>
	</g>
	<g>
		<path d="M6.4,11.1H1.1c-0.1,0-0.3-0.1-0.3-0.3V2.1C0.9,2,1,1.9,1.1,1.9h5.3c0.1,0,0.3,0.1,0.3,0.3v8.7C6.7,11,6.6,11.1,6.4,11.1z
			 M1.4,10.6h4.8V2.4H1.4C1.4,2.4,1.4,10.6,1.4,10.6z"/>
	</g>
	<g>
		<path d="M3.8,13.2c0,0-0.1,0-0.1,0c-0.1,0-0.3-0.1-0.3-0.3c-0.1-0.1-0.1-0.3,0-0.4c0.1-0.3,0.4-0.5,0.7-0.4
			c0.3,0.1,0.5,0.4,0.4,0.7l0,0c0,0.1-0.1,0.3-0.3,0.3C3.9,13.1,3.9,13.2,3.8,13.2z M3.8,12.5c-0.1,0-0.1,0-0.2,0.1
			c0,0.1,0,0.2,0.1,0.2c0,0,0.1,0,0.1,0c0,0,0.1-0.1,0.1-0.1l0,0C3.9,12.6,3.9,12.5,3.8,12.5C3.8,12.5,3.8,12.5,3.8,12.5z"/>
	</g>
</g>
<g>
</g>
<g>
</g>
<g>
</g>
<g>
</g>
<g>
</g>
<g>
</g>
<g>
</g>
<g>
</g>
<g>
</g>
<g>
</g>
<g>
</g>
<g>
</g>
<g>
</g>
<g>
</g>
<g>
</g>
</svg>
