<?xml version="1.0" encoding="utf-8"?>
<!-- Generator: Adobe Illustrator 19.1.0, SVG Export Plug-In . SVG Version: 6.00 Build 0)  -->
<svg version="1.1" id="Layer_1" xmlns="http://www.w3.org/2000/svg" xmlns:xlink="http://www.w3.org/1999/xlink" x="0px" y="0px"
	 width="27.3px" height="22px" viewBox="0 0 27.3 22" enable-background="new 0 0 27.3 22" xml:space="preserve">
<g>
	<g>
		<path fill="#FFFFFF" d="M25.8,22H1.4C0.6,22,0,21.4,0,20.6V2.5c0-0.2,0.2-0.4,0.4-0.4h24.5c0.2,0,0.4,0.2,0.4,0.4l0,15.5
			c0,0.2-0.2,0.4-0.4,0.4l0,0c-0.2,0-0.4-0.2-0.4-0.4l0-15.1H0.7v17.7c0,0.4,0.3,0.7,0.7,0.7h24.4c0.4,0,0.8-0.3,0.8-0.8V0.8
			L2.8,0.7c-0.2,0-0.4-0.2-0.4-0.4C2.4,0.2,2.6,0,2.8,0l0,0L27,0.1c0.2,0,0.4,0.2,0.4,0.4v20C27.3,21.3,26.6,22,25.8,22z"/>
	</g>
	<g>
		<path fill="#FFFFFF" d="M23.1,7.1H2C1.8,7.1,1.6,7,1.6,6.8V5c0-0.2,0.2-0.4,0.4-0.4h21.1c0.2,0,0.4,0.2,0.4,0.4v1.8
			C23.5,7,23.3,7.1,23.1,7.1z M2.4,6.4h20.4v-1H2.4V6.4z"/>
	</g>
	<g>
		<rect x="12.2" y="8.7" fill="#FFFFFF" width="10.9" height="0.7"/>
	</g>
	<g>
		<rect x="12.2" y="10.6" fill="#FFFFFF" width="10.9" height="0.7"/>
	</g>
	<g>
		<rect x="12.2" y="12.5" fill="#FFFFFF" width="10.9" height="0.7"/>
	</g>
	<g>
		<path fill="#FFFFFF" d="M10.6,13.3H2c-0.2,0-0.4-0.2-0.4-0.4V9.1c0-0.2,0.2-0.4,0.4-0.4h8.6c0.2,0,0.4,0.2,0.4,0.4v3.8
			C11,13.1,10.8,13.3,10.6,13.3z M2.4,12.5h7.8V9.5H2.4V12.5z"/>
	</g>
</g>
<g>
</g>
<g>
</g>
<g>
</g>
<g>
</g>
<g>
</g>
<g>
</g>
<g>
</g>
<g>
</g>
<g>
</g>
<g>
</g>
<g>
</g>
<g>
</g>
<g>
</g>
<g>
</g>
<g>
</g>
</svg>
