<?xml version="1.0" encoding="utf-8"?>
<!-- Generator: Adobe Illustrator 19.1.0, SVG Export Plug-In . SVG Version: 6.00 Build 0)  -->
<svg version="1.1" id="Layer_1" xmlns="http://www.w3.org/2000/svg" xmlns:xlink="http://www.w3.org/1999/xlink" x="0px" y="0px"
	 width="20.8px" height="22px" viewBox="0 0 20.8 22" enable-background="new 0 0 20.8 22" xml:space="preserve">
<g>
	<g>
		<path fill="#FFFFFF" d="M10.4,22H0.3C0.1,22,0,21.9,0,21.7V4.1c0-0.2,0.1-0.3,0.3-0.3h10.1c0.2,0,0.3,0.1,0.3,0.3v17.6
			C10.7,21.9,10.6,22,10.4,22z M0.6,21.4h9.5v-17H0.6V21.4z"/>
	</g>
	<g>
		<path fill="#FFFFFF" d="M10.4,22c-0.1,0-0.1,0-0.1,0c-0.1-0.1-0.2-0.2-0.2-0.3V4.1c0-0.1,0.1-0.2,0.1-0.2L15,0.1
			C15.1,0,15.2,0,15.3,0c0.1,0.1,0.2,0.2,0.2,0.3v17.8c0,0.1-0.1,0.2-0.1,0.2l-4.8,3.6C10.5,22,10.5,22,10.4,22z M10.7,4.2v16.8
			l4.2-3.2v-17L10.7,4.2z"/>
	</g>
	<g>
		<path fill="#FFFFFF" d="M10.5,22l-0.2-0.6l7.3-2.3V2.5l-2.4,0.8l-0.2-0.6l2.8-0.9c0.1,0,0.2,0,0.3,0c0.1,0.1,0.1,0.2,0.1,0.3v17.2
			c0,0.1-0.1,0.3-0.2,0.3L10.5,22z"/>
	</g>
	<g>
		<path fill="#FFFFFF" d="M20.5,22H10.4v-0.6h9.8v-17H18V3.8h2.5c0.2,0,0.3,0.1,0.3,0.3v17.6C20.8,21.9,20.6,22,20.5,22z"/>
	</g>
</g>
<g>
</g>
<g>
</g>
<g>
</g>
<g>
</g>
<g>
</g>
<g>
</g>
<g>
</g>
<g>
</g>
<g>
</g>
<g>
</g>
<g>
</g>
<g>
</g>
<g>
</g>
<g>
</g>
<g>
</g>
</svg>
